<?xml version="1.0" encoding="UTF-8"?>
<svg width="14px" height="14px" viewBox="0 0 14 14" version="1.1" xmlns="http://www.w3.org/2000/svg" xmlns:xlink="http://www.w3.org/1999/xlink">
    <!-- Generator: Sketch 63.1 (92452) - https://sketch.com -->
    <title>分组 3</title>
    <desc>Created with Sketch.</desc>
    <g id="页面-1" stroke="none" stroke-width="1" fill-rule="evenodd">
        <g id="-企业管家-员工3" transform="translate(-35.000000, -144.000000)" fill-rule="nonzero">
            <g id="分组-4" transform="translate(0.000000, 131.000000)">
                <g id="分组-3" transform="translate(35.000000, 13.000000)">
                    <g id="企业信息" transform="translate(0.000000, 0.777778)">
                        <path d="M13.6220167,11.2700143 L12.6210155,11.2700143 L12.6210155,3.57000538 C12.6210155,3.18500493 12.3130151,2.95400466 12.0050148,2.95400466 L9.46401183,2.95400466 L9.46401183,1.02900242 C9.46401183,0.490001792 9.38701174,0.105001344 8.84801111,0.105001344 L2.30300349,0.105001344 C1.76400287,0.105001344 1.30200233,0.567001882 1.30200233,1.02900242 L1.30200233,11.2700143 L0.378001254,11.2700143 C0.224001075,11.2700143 0.070000896,11.4240145 0.070000896,11.5780147 L0.070000896,12.8870162 C0.070000896,13.0410164 0.224001075,13.1950166 0.378001254,13.1950166 L13.6220167,13.1950166 C13.7760168,13.1950166 13.930017,13.0410164 13.930017,12.8870162 L13.930017,11.5780147 C13.930017,11.4240145 13.7760168,11.2700143 13.6220167,11.2700143 Z M4.92100654,10.0380129 C4.92100654,10.4230134 4.61300618,10.6540136 4.30500582,10.6540136 L3.61200502,10.6540136 C3.22700457,10.6540136 2.9960043,10.3460133 2.9960043,10.0380129 L2.9960043,9.42201219 C2.9960043,9.03701174 3.30400466,8.80601147 3.61200502,8.80601147 L4.22800573,8.80601147 C4.61300618,8.80601147 4.84400645,9.11401183 4.84400645,9.42201219 L4.84400645,10.0380129 L4.92100654,10.0380129 Z M4.92100654,6.80400914 C4.92100654,7.18900959 4.61300618,7.42000986 4.30500582,7.42000986 L3.61200502,7.42000986 C3.22700457,7.42000986 2.9960043,7.1120095 2.9960043,6.80400914 L2.9960043,6.18800842 C2.9960043,5.80300797 3.30400466,5.57200771 3.61200502,5.57200771 L4.22800573,5.57200771 C4.61300618,5.57200771 4.84400645,5.88000806 4.84400645,6.18800842 L4.84400645,6.80400914 L4.92100654,6.80400914 Z M4.92100654,3.64700547 C4.92100654,4.03200591 4.61300618,4.26300618 4.30500582,4.26300618 L3.61200502,4.26300618 C3.22700457,4.26300618 2.9960043,3.95500582 2.9960043,3.64700547 L2.9960043,2.95400466 C2.9960043,2.56900421 3.30400466,2.33800394 3.61200502,2.33800394 L4.22800573,2.33800394 C4.61300618,2.33800394 4.84400645,2.6460043 4.84400645,2.95400466 L4.84400645,3.64700547 L4.92100654,3.64700547 Z M7.77000986,10.0380129 C7.77000986,10.4230134 7.4620095,10.6540136 7.15400914,10.6540136 L6.53800842,10.6540136 C6.15300797,10.6540136 5.92200771,10.3460133 5.92200771,10.0380129 L5.92200771,9.42201219 C5.92200771,9.03701174 6.23000806,8.80601147 6.53800842,8.80601147 L7.15400914,8.80601147 C7.53900959,8.80601147 7.77000986,9.11401183 7.77000986,9.42201219 L7.77000986,10.0380129 Z M7.77000986,6.80400914 C7.77000986,7.18900959 7.4620095,7.42000986 7.15400914,7.42000986 L6.53800842,7.42000986 C6.15300797,7.42000986 5.92200771,7.1120095 5.92200771,6.80400914 L5.92200771,6.18800842 C5.92200771,5.80300797 6.23000806,5.57200771 6.53800842,5.57200771 L7.15400914,5.57200771 C7.53900959,5.57200771 7.77000986,5.88000806 7.77000986,6.18800842 L7.77000986,6.80400914 Z M7.77000986,3.64700547 C7.77000986,4.03200591 7.4620095,4.26300618 7.15400914,4.26300618 L6.53800842,4.26300618 C6.15300797,4.26300618 5.92200771,3.95500582 5.92200771,3.64700547 L5.92200771,2.95400466 C5.92200771,2.56900421 6.23000806,2.33800394 6.53800842,2.33800394 L7.15400914,2.33800394 C7.53900959,2.33800394 7.77000986,2.6460043 7.77000986,2.95400466 L7.77000986,3.64700547 Z M11.312014,9.03701174 C11.312014,9.19101192 11.1580138,9.3450121 11.0040136,9.3450121 L10.3880129,9.3450121 C10.2340127,9.3450121 10.0800125,9.19101192 10.0800125,9.03701174 L10.0800125,8.42101102 C10.0800125,8.26701084 10.2340127,8.11301066 10.3880129,8.11301066 L11.0040136,8.11301066 C11.1580138,8.11301066 11.312014,8.26701084 11.312014,8.42101102 L11.312014,9.03701174 Z M11.312014,6.49600878 C11.312014,6.65000896 11.1580138,6.80400914 11.0040136,6.80400914 L10.3880129,6.80400914 C10.2340127,6.80400914 10.0800125,6.65000896 10.0800125,6.49600878 L10.0800125,5.88000806 C10.0800125,5.72600788 10.2340127,5.57200771 10.3880129,5.57200771 L11.0040136,5.57200771 C11.1580138,5.57200771 11.312014,5.72600788 11.312014,5.88000806 L11.312014,6.49600878 Z" id="形状"></path>
                    </g>
                </g>
            </g>
        </g>
    </g>
</svg>
