<?xml version="1.0" encoding="UTF-8"?>
<svg width="14px" height="14px" viewBox="0 0 14 14" version="1.1" xmlns="http://www.w3.org/2000/svg" xmlns:xlink="http://www.w3.org/1999/xlink">
    <!-- Generator: Sketch 63.1 (92452) - https://sketch.com -->
    <title>设 置 (1)</title>
    <desc>Created with Sketch.</desc>
    <g id="11-15-企业管家-PC端" stroke="none" stroke-width="1" fill-rule="evenodd">
        <g id="08-1-角色" transform="translate(-35.000000, -414.000000)" fill-rule="nonzero">
            <g id="左导航-" transform="translate(0.000000, 68.000000)">
                <g id="分组-4-copy-6" transform="translate(0.000000, 333.000000)">
                    <g id="设-置-(1)" transform="translate(35.000000, 13.000000)">
                        <path d="M12.7680149,7 C12.7680149,6.18100719 13.2790155,5.48800639 14.0000163,5.20800606 C13.8250161,4.53600528 13.5660158,3.89900454 13.2160154,3.31100385 C12.5090146,3.62600422 11.6550136,3.5 11.0810129,2.9190034 C10.5000122,2.33800272 10.3740121,1.48400173 10.6890124,0.784000912 C10.1010118,0.434000505 9.46401101,0.168000195 8.79201023,-3.05311687e-16 C8.5120099,0.721000839 7.8190091,1.23200143 7,1.23200143 C6.18100719,1.23200143 5.48800639,0.721000839 5.20800606,-3.05311687e-16 C4.53600528,0.175000204 3.89900454,0.434000505 3.31100385,0.784000912 C3.62600422,1.49100173 3.5,2.34500273 2.9190034,2.9190034 C2.33800272,3.49300406 1.48400173,3.62600422 0.784000912,3.31100385 C0.434000505,3.89900454 0.175000204,4.53600528 -5.19029868e-15,5.20800606 C0.721000839,5.48800639 1.23200143,6.18100719 1.23200143,7 C1.23200143,7.8190091 0.721000839,8.5120099 -5.19029868e-15,8.79201023 C0.175000204,9.46401101 0.434000505,10.1010118 0.784000912,10.6890124 C1.49100173,10.3740121 2.34500273,10.5000122 2.9190034,11.0810129 C3.5,11.6620136 3.62600422,12.5160146 3.31100385,13.2160154 C3.89900454,13.5660158 4.53600528,13.8320161 5.20800606,14.0000163 C5.48800639,13.2790155 6.18100719,12.7680149 7,12.7680149 C7.8190091,12.7680149 8.5120099,13.2790155 8.79201023,14.0000163 C9.46401101,13.8250161 10.1010118,13.5660158 10.6890124,13.2160154 C10.3740121,12.5090146 10.5000122,11.6550136 11.0810129,11.0810129 C11.6620136,10.5070122 12.5160146,10.3740121 13.2160154,10.6890124 C13.5660158,10.1080118 13.8320161,9.47101102 14.0000163,8.79201023 C13.2790155,8.5120099 12.7680149,7.8190091 12.7680149,7 Z M7.00000815,8.92501039 C5.93600691,8.92501039 5.07500591,8.06400938 5.07500591,7.00000815 C5.07500591,5.93600691 5.93600691,5.07500591 7.00000815,5.07500591 C8.06400938,5.07500591 8.92501039,5.93600691 8.92501039,7.00000815 C8.92501039,8.06400938 8.06400938,8.92501039 7.00000815,8.92501039 Z" id="形状"></path>
                    </g>
                </g>
            </g>
        </g>
    </g>
</svg>
