<?xml version="1.0" encoding="UTF-8"?>
<svg width="14px" height="14px" viewBox="0 0 14 14" version="1.1" xmlns="http://www.w3.org/2000/svg" xmlns:xlink="http://www.w3.org/1999/xlink">
    <!-- Generator: Sketch 63.1 (92452) - https://sketch.com -->
    <title>形状</title>
    <desc>Created with Sketch.</desc>
    <g id="页面-1" stroke="none" stroke-width="1"  fill-rule="evenodd">
        <g id="-企业管家-员工3" transform="translate(-35.000000, -354.000000)" fill-rule="nonzero">
            <g id="分组-4-copy-5" transform="translate(0.000000, 341.000000)">
                <g id="形状-2" transform="translate(35.000000, 13.000000)">
                    <path d="M0.288924586,0.431962025 C0.484502989,0.221518987 0.783017394,0.110759494 1.3800462,0.110759494 L3.06819663,0.110759494 L3.06819663,14 L1.2771102,14 C0.783017394,14 0.484502989,13.8892405 0.288924586,13.789557 C0.0933461833,13.5791139 0.0933461833,13.3575949 0.0933461833,12.8259494 L0.0933461833,9.30379747 C0.0933461833,9.09335443 0.0933461833,8.98259494 0.196282185,8.87183544 C0.299218187,8.76107595 0.391860588,8.66139241 0.597732591,8.66139241 C0.700668593,8.66139241 0.793310994,8.66139241 0.896246996,8.55063291 C1.1947614,8.43987342 1.49327581,8.11867089 1.59621181,7.79746835 L1.59621181,7.05537975 C1.59621181,6.62341772 1.49327581,6.30221519 1.2976974,6.09177215 C1.102119,5.77056962 0.803604594,5.65981013 0.597732591,5.65981013 C0.402154188,5.65981013 0.299218187,5.54905063 0.196282185,5.44936709 C0.0933461833,5.33860759 0.000703781892,5.23892405 0.000703781892,5.01740506 L0.000703781892,1.49525316 C-0.00958981827,0.963607595 0.0933461833,0.642405063 0.288924586,0.431962025 Z M7.8341335,7.26582278 L7.8341335,8.43987342 L6.04304708,8.43987342 C5.74453267,8.43987342 5.44601827,8.76107595 5.44601827,9.08227848 C5.44601827,9.40348101 5.74453267,9.72468354 6.04304708,9.72468354 L7.8341335,9.72468354 L7.8341335,11.4303797 C7.8341335,11.7515823 8.13264791,12.0727848 8.43116231,12.0727848 C8.72967672,12.0727848 9.02819112,11.7515823 9.02819112,11.4303797 L9.02819112,9.72468354 L10.7163415,9.72468354 C11.014856,9.72468354 11.3133704,9.51424051 11.3133704,9.08227848 C11.3133704,8.76107595 11.014856,8.43987342 10.7163415,8.43987342 L9.02819112,8.43987342 L9.02819112,7.26582278 L10.7163415,7.26582278 C11.014856,7.26582278 11.3133704,7.05537975 11.3133704,6.62341772 C11.3133704,6.30221519 11.014856,5.98101266 10.7163415,5.98101266 L9.32670553,5.98101266 L11.2104344,4.06487342 C11.4060128,3.95411392 11.5089488,3.85443038 11.5089488,3.63291139 C11.5089488,3.42246835 11.4060128,3.31170886 11.3133704,3.20094937 C11.117792,2.99050633 10.7163415,2.99050633 10.5207631,3.20094937 L8.63703432,5.12816456 L8.53409831,5.23892405 L8.43116231,5.12816456 L6.54743348,3.31170886 C6.35185508,3.10126582 5.95040467,3.10126582 5.75482627,3.31170886 C5.55924787,3.42246835 5.45631187,3.5221519 5.45631187,3.63291139 C5.45631187,3.84335443 5.55924787,3.95411392 5.65189027,4.06487342 L7.5356191,5.99208861 L6.04304708,5.99208861 C5.74453267,5.99208861 5.44601827,6.31329114 5.44601827,6.63449367 C5.44601827,6.9556962 5.74453267,7.27689873 6.04304708,7.27689873 L7.8341335,7.27689873 L7.8341335,7.26582278 Z M13.0015208,4.80696203 C12.8985848,5.01740506 12.8059424,5.12816456 12.8059424,5.33860759 C12.8059424,5.54905063 12.8059424,5.65981013 12.9088784,5.87025316 C13.0118144,6.0806962 13.1044568,6.1914557 13.4029712,6.1914557 C13.5985496,6.30221519 13.7014856,6.40189873 13.8044216,6.51265823 C13.9073576,6.62341772 13.9073576,6.83386076 14,6.94462025 C14,7.15506329 14,7.26582278 13.897064,7.37658228 C13.794128,7.48734177 13.7014856,7.69778481 13.5985496,7.69778481 C13.1044568,7.90822785 12.8985848,8.22943038 12.8985848,8.55063291 C12.8985848,8.87183544 13.0941632,9.08227848 13.3926776,9.30379747 C13.588256,9.41455696 13.691192,9.51424051 13.794128,9.625 C13.897064,9.73575949 13.9897064,9.94620253 13.9897064,10.1566456 C13.9897064,10.3670886 13.9897064,10.4778481 13.8867704,10.5886076 L13.588256,10.9098101 C13.3926776,11.0205696 13.1868056,11.0205696 13.0941632,11.2310127 C12.9912272,11.3417722 12.8985848,11.5522152 12.8985848,11.6629747 C12.8985848,11.8734177 12.8985848,11.9841772 13.0015208,12.1946203 C13.1044568,12.4050633 13.3000352,12.5158228 13.4956136,12.6265823 L13.794128,12.9477848 C13.897064,13.1582278 13.897064,13.2689873 13.897064,13.3797468 C13.897064,13.4905063 13.794128,13.5901899 13.7014856,13.7009494 C13.6088432,13.8117089 13.5059072,13.9113924 13.4029712,13.9113924 L3.86080384,13.9113924 L3.86080384,0 L13.3926776,0 C13.4956136,0 13.691192,0.110759494 13.691192,0.210443038 C13.794128,0.321202532 13.794128,0.420886076 13.794128,0.642405063 C13.794128,0.753164557 13.794128,0.963607595 13.691192,1.07436709 L13.3926776,1.39556962 C13.1970992,1.39556962 13.0941632,1.50632911 12.9912272,1.71677215 C12.8882912,1.82753165 12.7956488,2.03797468 12.7956488,2.14873418 C12.7956488,2.35917722 12.7956488,2.46993671 12.8985848,2.5806962 C13.0015208,2.6914557 13.0941632,2.79113924 13.3926776,2.90189873 C13.588256,3.01265823 13.691192,3.11234177 13.794128,3.22310127 C13.897064,3.33386076 13.897064,3.5443038 13.897064,3.75474684 C13.897064,3.96518987 14,4.07594937 13.897064,4.18670886 C13.794128,4.29746835 13.7014856,4.3971519 13.4956136,4.50791139 C13.2897416,4.61867089 13.0941632,4.70727848 13.0015208,4.80696203 L13.0015208,4.80696203 Z" id="形状"></path>
                </g>
            </g>
        </g>
    </g>
</svg>
