<?xml version="1.0" encoding="UTF-8"?>
<svg width="14px" height="14px" viewBox="0 0 14 14" version="1.1" xmlns="http://www.w3.org/2000/svg" xmlns:xlink="http://www.w3.org/1999/xlink">
    <!-- Generator: Sketch 63.1 (92452) - https://sketch.com -->
    <title>形状</title>
    <desc>Created with Sketch.</desc>
    <g id="11-15-企业管家-PC端" stroke="none" stroke-width="1" fill-rule="evenodd">
        <g id="08-1-角色" transform="translate(-35.000000, -314.000000)" fill-rule="nonzero">
            <g id="左导航-" transform="translate(0.000000, 68.000000)">
                <g id="分组-4-copy-4" transform="translate(0.000000, 233.000000)">
                    <path d="M43.823332,13 L40.1777413,13 L40.1777413,13 C39.7038843,13.0365789 39.3516824,13.4229386 39.3910729,13.8629574 C39.4259197,14.2522085 39.7585575,14.5610934 40.1777413,14.593452 L43.8454022,14.593452 L43.8454022,14.593452 C44.3187586,14.5516591 44.6660046,14.161449 44.6209972,13.721895 C44.5811216,13.3324525 44.2436156,13.0270034 43.8233394,13 L43.823332,13 Z M45.9369702,13.7994748 C45.9369702,14.8352928 45.7287277,15.3984297 44.625632,15.3984297 L39.3791986,15.3984297 C38.2809469,15.3984297 38.0667842,14.6579164 38.0667842,13.7994748 L36.3190479,13.7994748 L36.3190479,13.7994748 C35.6208471,13.7755919 35.0339937,14.2818177 35.0082751,14.930162 C35.0073694,14.9529934 35.0071812,14.9758443 35.0077106,14.9986859 L35.0077106,25.7915911 L35.0077106,25.7915913 C34.9342239,26.3868039 35.3942706,26.924637 36.0352525,26.9928761 C36.1297678,27.0029382 36.225253,27.0022418 36.3195862,26.9908022 L47.6863064,26.9908022 L47.6863064,26.9908022 C48.3596117,27.037709 48.9463827,26.568889 48.9968966,25.9436625 C49.0009853,25.8930556 49.001415,25.8422511 48.9981829,25.7915915 L48.9981829,14.9986863 L48.9981829,14.9986862 C49.0634882,14.3959951 48.5902801,13.8582578 47.9412431,13.7976161 C47.8564408,13.7896927 47.7709645,13.7903161 47.6863058,13.7994755 L45.9374947,13.7994755 L45.9369702,13.7994748 Z M45.5064937,23.7929024 L38.5833636,23.7929024 L38.5833636,23.7929024 C38.3243157,23.7786638 38.1115708,23.5975912 38.0737881,23.3591876 L38.0737881,23.3591876 C38.1013737,23.1407792 38.3089225,22.9810518 38.5451598,22.9964259 L45.4505337,22.9964259 L45.4505337,22.9964259 C45.6901382,22.9812555 45.9025871,23.1384276 45.9402005,23.3586872 L45.9402005,23.3586781 C45.9397093,23.585276 45.7528592,23.773974 45.5097344,23.7934004 L45.5064937,23.7929024 Z M45.4155557,20.994745 L38.4800433,20.994745 L38.4800433,20.994745 C38.2444023,20.9884817 38.0580165,20.8073866 38.0618823,20.588512 L38.0618823,20.5885121 C38.0859365,20.3645528 38.2904257,20.1948491 38.532776,20.1977694 L45.4499874,20.1977694 L45.4499874,20.1977694 C45.6962409,20.1945526 45.90658,20.362029 45.9407305,20.5885121 L45.9407305,20.5885121 C45.8926982,20.8228551 45.6729752,20.9929881 45.4160872,20.994745 L45.4155557,20.994745 Z M45.4155557,18.1965874 L38.4800433,18.1965874 L38.4800433,18.1965874 C38.2444023,18.1903242 38.0580165,18.0092291 38.0618823,17.7903544 L38.0618823,17.7903545 C38.0859365,17.5663953 38.2904257,17.3966916 38.532776,17.3996119 L45.4499874,17.3996119 L45.4499874,17.3996119 C45.6962409,17.396395 45.90658,17.5638714 45.9407305,17.7903545 L45.9407305,17.7903545 C45.8926982,18.0246976 45.6729752,18.1948306 45.4160872,18.1965874 L45.4155557,18.1965874 Z" id="形状"></path>
                </g>
            </g>
        </g>
    </g>
</svg>
